<?xml version="1.0" encoding="UTF-8" standalone="no"?>
<!DOCTYPE svg PUBLIC "-//W3C//DTD SVG 1.1//EN" "http://www.w3.org/Graphics/SVG/1.1/DTD/svg11.dtd">
<!-- Created with Vectornator (http://vectornator.io/) -->
<svg height="100%" stroke-miterlimit="10" style="fill-rule:nonzero;clip-rule:evenodd;stroke-linecap:round;stroke-linejoin:round;" version="1.1" viewBox="0 0 512 512" width="100%" xml:space="preserve" xmlns="http://www.w3.org/2000/svg" xmlns:vectornator="http://vectornator.io" xmlns:xlink="http://www.w3.org/1999/xlink">
<defs/>
<g id="Layer-1" vectornator:layerName="Layer 1">
<g opacity="1">
<path d="M299.332 339.472L414.72 454.498C418.319 458.097 424.177 458.069 427.748 454.442L432.519 449.588C436.062 445.989 436.034 440.214 432.463 436.671L299.332 303.539L299.332 219.174L434.053 85.3728C437.68 81.7739 437.652 75.8873 434.026 72.3163L428.836 67.2109C425.237 63.6957 419.49 63.6957 415.919 67.2667L299.359 183.297L299.359 61.6033C299.359 56.5258 295.258 52.4247 290.181 52.4247L282.732 52.4247C277.654 52.4247 273.553 56.5258 273.553 61.6033L273.553 450.369C273.553 455.446 277.654 459.547 282.732 459.547L290.181 459.547C295.258 459.547 299.359 455.446 299.359 450.369L299.359 339.472C299.359 339.472 299.332 339.472 299.332 339.472Z" fill="#ffffff" fill-rule="nonzero" opacity="1" stroke="none"/>
<path d="M213.321 302.869L78.3756 437.48C74.7767 441.079 74.7767 446.909 78.3756 450.48L83.4252 455.502C87.0241 459.073 92.7991 459.073 96.3701 455.502L213.293 338.775L213.293 450.397C213.293 455.474 217.394 459.575 222.471 459.575L229.92 459.575C234.998 459.575 239.099 455.474 239.099 450.397L239.099 61.6033C239.099 56.5258 234.998 52.4247 229.92 52.4247L222.471 52.4247C217.394 52.4247 213.293 56.5258 213.293 61.6033L213.293 183.882L95.2263 66.1229C91.6274 62.524 85.7966 62.5519 82.2256 66.1508L77.3154 71.0888C73.7444 74.6877 73.7723 80.4627 77.3154 84.0616L213.265 219.788L213.265 302.869L213.265 302.869L213.321 302.869Z" fill="#ffffff" fill-rule="nonzero" opacity="1" stroke="none"/>
<path d="M30.4181 402.579L35.4119 407.545C39.0108 411.116 44.8137 411.088 48.3847 407.489L195.94 258.985L48.9427 112.016C45.3717 108.445 39.5409 108.445 35.9699 112.016L31.0039 116.982C27.4329 120.553 27.4329 126.384 31.0039 129.955L160.09 259.041L30.3902 389.578C26.7913 393.177 26.8192 399.008 30.4181 402.579Z" fill="#ffffff" fill-rule="nonzero" opacity="1" stroke="none"/>
<path d="M476.599 406.205L481.592 401.24C485.191 397.669 485.191 391.838 481.62 388.267L352.869 259.041L480.7 131.21C484.271 127.639 484.271 121.808 480.7 118.237L475.734 113.271C472.163 109.7 466.332 109.7 462.761 113.271L316.991 259.041L463.626 406.233C467.197 409.776 473 409.776 476.599 406.233L476.599 406.205Z" fill="#ffffff" fill-rule="nonzero" opacity="1" stroke="none"/>
</g>
</g>
</svg>
