<svg xmlns="http://www.w3.org/2000/svg" id="a" viewBox="0 0 812.34 210.16"><defs><style>.b{fill:#fff;}</style></defs><path class="b" d="M796.81,42.37h2.55c1.42,0,2.39,.06,2.9,.17,.76,.17,1.38,.55,1.86,1.12s.72,1.28,.72,2.11c0,.7-.16,1.32-.49,1.84s-.8,.92-1.41,1.2c-.61,.27-1.15,.41-1.6,.41l3.67,5.97h-1.57l-3.68-5.97h-1.67v5.97h-1.28v-12.82Zm1.28,1.25v4.36l2.21,.02c.85,0,1.49-.08,1.9-.24,.41-.16,.73-.42,.96-.78,.23-.36,.34-.76,.34-1.2s-.12-.82-.35-1.17-.54-.6-.91-.76c-.37-.15-1-.23-1.88-.23h-2.27Z"/><path class="b" d="M800.68,60.89c-6.43,0-11.66-5.23-11.66-11.66s5.23-11.66,11.66-11.66,11.66,5.23,11.66,11.66-5.23,11.66-11.66,11.66m0-21.88c-5.64,0-10.22,4.58-10.22,10.22s4.58,10.22,10.22,10.22,10.22-4.58,10.22-10.22-4.59-10.22-10.22-10.22"/><path class="b" d="M596.64,42.53c2.66-2.93,5.47-5.57,8.41-7.94-3.79-.75-7.75-1.13-11.88-1.13-16.6,0-30.89,6.13-41.88,18.24-9.88,10.99-15.2,24.12-15.2,39.03v55.68h23.22l-.15-55.69c.03-9.76,3.51-17.82,10.19-24.71,5.07-5.23,10.85-8.4,17.35-9.63,2.68-4.89,6.03-9.5,9.94-13.85"/><polygon class="b" points="313.5 38.31 280.08 38.31 240.09 72.27 240.09 0 217.74 0 217.74 146.4 240.09 146.4 240.09 100.1 245.42 95.77 283.3 146.4 313.56 146.4 265.9 81.18 313.5 38.31"/><polygon class="b" points="481.3 105.35 450.58 36.48 426.32 36.48 469.11 132.74 447.92 181.07 472.16 181.07 535.57 36.48 511.13 36.48 481.3 105.35"/><path class="b" d="M689.6,51.58c-10.97-12.02-24.95-18.12-41.54-18.12s-30.58,6.13-41.56,18.24c-9.88,10.99-14.89,24.12-14.89,39.03s5.29,28.29,15.71,39.49c10.52,11.31,24.23,17.05,40.74,17.05s30.14-5.73,40.69-17.04c10.46-11.21,15.76-24.5,15.76-39.5,0-14.97-5-28.13-14.91-39.15m-12.5,57.01c-3.01,5.46-6.95,9.52-12.05,12.43-5.08,2.89-10.8,4.36-16.99,4.36s-11.68-1.43-16.86-4.36c-5.13-2.91-9.1-6.98-12.14-12.44-3.03-5.45-4.56-11.39-4.56-17.66,0-9.82,3.26-17.96,9.97-24.88,6.67-6.88,14.38-10.22,23.6-10.22s16.93,3.34,23.59,10.22c6.71,6.92,9.97,15.06,9.97,24.88,0,6.26-1.52,12.21-4.53,17.67"/><path class="b" d="M422.59,90.71c0-15.04-5.11-28.2-15.18-39.13-10.97-12.02-24.95-18.12-41.54-18.12s-30.58,6.13-41.56,18.24c-9.88,10.99-14.89,24.12-14.89,39.03s5.28,28.29,15.71,39.49c10.52,11.31,24.23,17.05,40.74,17.05l.2-.02c13.84-1.17,24.54-5.42,32.75-12.67v13.2h22.79l.86-3.9c.19-.85,.3-1.41,.12-53.17m-31.63,24.06c-6.46,6.92-14.84,10.43-24.91,10.43-3.46,0-6.71-.42-9.76-1.24-.58-.1-1.17-.2-1.76-.33-.38-.19-.76-.39-1.13-.59-4.66-1.73-8.77-4.49-12.29-8.28-6.38-6.86-9.62-15-9.62-24.18s3.07-17.16,9.11-23.89c6.73-7.41,15.29-11.16,25.45-11.16s18.71,3.73,25.43,11.09c6.06,6.75,9.13,14.8,9.13,23.96,0,9.19-3.25,17.32-9.65,24.19"/><path class="b" d="M753.01,79.19c-8.82-4.51-12.26-7.49-13.6-9.2l-.13-.16c-1.69-1.98-2.51-3.88-2.51-5.8,0-2.33,.9-4.24,2.82-6.01,2.02-1.85,4.4-2.75,7.3-2.75,5.08,0,10.63,2.87,16.5,8.53l3.58,3.45,.21-.22,9.94-20.02c-9.77-8.99-19.75-13.55-29.68-13.55-9.05,0-16.71,2.97-22.78,8.83-6.12,5.91-9.22,13.4-9.22,22.28,0,6.8,1.95,12.92,5.79,18.21,3.7,5.29,10.25,10.25,19.98,15.14,10.05,5.17,13.35,8.11,14.42,9.4,1.6,1.93,2.38,4.08,2.38,6.58,0,3.01-1.2,5.5-3.76,7.85-2.65,2.43-5.8,3.62-9.6,3.62-5.85,0-11.39-3.05-16.95-9.34l-10.75-13.25c-1.41,8.56-4.35,16.6-8.82,24.06l3.91,4.59c3.84,5.01,8.78,8.94,14.68,11.71,5.84,2.73,12.05,4.12,18.47,4.12,9.85,0,18.2-3.32,24.81-9.86,6.63-6.56,9.99-14.65,9.99-24.04,0-6.8-1.98-13.01-5.93-18.54-3.88-5.24-10.76-10.35-21.05-15.63"/><g><path class="b" d="M546.14,180.03v1.19h-9.31v-16.7h9.18v1.19h-7.92v6.49h7.32v1.19h-7.32v6.63h8.05Z"/><path class="b" d="M569.66,164.52v16.7h-1.1l-8.52-14.17v14.17h-1.26v-16.7h1.1l8.52,14.17v-14.17h1.26Z"/><path class="b" d="M608.57,180.03v1.19h-9.31v-16.7h9.18v1.19h-7.92v6.49h7.32v1.19h-7.32v6.63h8.05Z"/><path class="b" d="M630.35,180.03v1.19h-9.14v-16.7h1.26v15.51h7.88Z"/><path class="b" d="M667.73,165.71h-4.77v15.51h-1.29v-15.51h-4.77v-1.19h10.83v1.19Z"/><path class="b" d="M681.16,164.52v16.7h-1.26v-16.7h1.26Z"/><path class="b" d="M704.16,180.03v1.19h-9.31v-16.7h9.18v1.19h-7.92v6.49h7.32v1.19h-7.32v6.63h8.05Z"/><path class="b" d="M731.9,181.22h-1.26v-14.62l-5.65,11.67h-1.26l-5.65-11.67v14.62h-1.26v-16.7h1.59l5.94,12.29,5.96-12.29h1.6v16.7h0Z"/><path class="b" d="M756.23,169.46c0,2.7-2.2,4.91-4.91,4.91h-4.46v6.85h-1.26v-16.7h5.72c2.72,0,4.91,2.22,4.91,4.94Zm-1.26,0c0-2.08-1.65-3.75-3.65-3.75h-4.46v7.47h4.46c2,0,3.65-1.67,3.65-3.72Z"/><path class="b" d="M767.8,172.87c0-4.77,3.79-8.61,8.61-8.61s8.61,3.84,8.61,8.61-3.79,8.61-8.61,8.61-8.61-3.84-8.61-8.61Zm15.96,0c0-4.1-3.22-7.4-7.35-7.4s-7.35,3.29-7.35,7.4,3.22,7.4,7.35,7.4c4.13,0,7.35-3.29,7.35-7.4Z"/><path class="b" d="M535.59,201.5c0-4.84,3.84-8.66,8.66-8.66s8.66,3.82,8.66,8.66-3.82,8.66-8.66,8.66-8.66-3.82-8.66-8.66Zm14.58,0c0-3.44-2.58-5.99-5.92-5.99s-5.92,2.55-5.92,5.99,2.58,5.99,5.92,5.99,5.92-2.56,5.92-5.99Z"/><path class="b" d="M576.53,198.52c0,2.96-2.39,5.37-5.42,5.37h-3.41v5.96h-2.74v-16.7h6.15c3.04,0,5.42,2.38,5.42,5.37Zm-2.74,0c0-1.57-1.17-2.79-2.67-2.79h-3.41v5.58h3.41c1.5,0,2.67-1.24,2.67-2.79Z"/><path class="b" d="M587.6,201.5c0-4.84,3.84-8.66,8.66-8.66s8.66,3.82,8.66,8.66-3.82,8.66-8.66,8.66-8.66-3.82-8.66-8.66Zm14.58,0c0-3.44-2.58-5.99-5.92-5.99s-5.92,2.55-5.92,5.99,2.58,5.99,5.92,5.99,5.92-2.56,5.92-5.99Z"/><path class="b" d="M622.31,203.76h-2.6v6.08h-2.74v-16.7h6.2c2.98,0,5.37,2.39,5.37,5.37,0,2.12-1.36,4.03-3.29,4.84l5.44,6.49h-3.27l-5.11-6.08Zm-2.6-2.45h3.46c1.46,0,2.62-1.24,2.62-2.79s-1.17-2.79-2.62-2.79h-3.46v5.58Z"/><path class="b" d="M650.48,195.77h-4.22v14.08h-2.74v-14.08h-4.25v-2.62h11.21v2.62Z"/><path class="b" d="M661.81,204.79v-11.64h2.74v11.47c0,1.84,1.12,2.86,3.22,2.86s3.22-1.03,3.22-2.86v-11.47h2.74v11.64c0,3.48-2.65,5.37-5.96,5.37s-5.96-1.89-5.96-5.37Z"/><path class="b" d="M698.31,193.15v16.7h-2.15l-7.04-11.33v11.33h-2.74v-16.7h2.15l7.04,11.33v-11.33h2.74Z"/><path class="b" d="M710.36,201.5c0-4.84,3.84-8.66,8.66-8.66s8.66,3.82,8.66,8.66-3.82,8.66-8.66,8.66-8.66-3.82-8.66-8.66Zm14.58,0c0-3.44-2.58-5.99-5.92-5.99s-5.92,2.55-5.92,5.99,2.58,5.99,5.92,5.99,5.92-2.56,5.92-5.99Z"/></g><g><path class="b" d="M97.36,103.36l41.36,41.23c1.29,1.29,3.39,1.28,4.67-.02l1.71-1.74c1.27-1.29,1.26-3.36-.02-4.63l-47.72-47.72v-30.24L145.65,12.28c1.3-1.29,1.29-3.4-.01-4.68l-1.86-1.83c-1.29-1.26-3.35-1.26-4.63,.02l-41.78,41.59V3.76c0-1.82-1.47-3.29-3.29-3.29h-2.67c-1.82,0-3.29,1.47-3.29,3.29V143.11c0,1.82,1.47,3.29,3.29,3.29h2.67c1.82,0,3.29-1.47,3.29-3.29v-39.75h-.01Z"/><path class="b" d="M66.53,90.24l-48.37,48.25c-1.29,1.29-1.29,3.38,0,4.66l1.81,1.8c1.29,1.28,3.36,1.28,4.64,0l41.91-41.84v40.01c0,1.82,1.47,3.29,3.29,3.29h2.67c1.82,0,3.29-1.47,3.29-3.29V3.76c0-1.82-1.47-3.29-3.29-3.29h-2.67c-1.82,0-3.29,1.47-3.29,3.29V47.59L24.2,5.38c-1.29-1.29-3.38-1.28-4.66,.01l-1.76,1.77c-1.28,1.29-1.27,3.36,0,4.65l48.73,48.65v29.78h0Z"/><path class="b" d="M.97,125.98l1.79,1.78c1.29,1.28,3.37,1.27,4.65-.02l52.89-53.23L7.61,21.83c-1.28-1.28-3.37-1.28-4.65,0l-1.78,1.78c-1.28,1.28-1.28,3.37,0,4.65l46.27,46.27L.96,121.32c-1.29,1.29-1.28,3.38,.01,4.66Z"/><path class="b" d="M160.9,127.28l1.79-1.78c1.29-1.28,1.29-3.37,.01-4.65l-46.15-46.32,45.82-45.82c1.28-1.28,1.28-3.37,0-4.65l-1.78-1.78c-1.28-1.28-3.37-1.28-4.65,0l-52.25,52.25,52.56,52.76c1.28,1.27,3.36,1.27,4.65,0Z"/></g></svg>